<?xml version="1.0" encoding="UTF-8" standalone="no"?><svg xmlns="http://www.w3.org/2000/svg" xmlns:xlink="http://www.w3.org/1999/xlink" contentScriptType="application/ecmascript" contentStyleType="text/css" height="353px" preserveAspectRatio="none" style="width:801px;height:353px;background:#FFFFFF;" version="1.1" viewBox="0 0 801 353" width="801px" zoomAndPan="magnify"><defs/><g><!--MD5=[fff2046bc3222dd990a3f07518d04a81]
class ZCL_SPDF_ABSTRACT_PDF--><rect codeLine="3" fill="#FEFECE" height="48" id="ZCL_SPDF_ABSTRACT_PDF" style="stroke:#A80036;stroke-width:1.5;" width="189" x="199.5" y="45.5"/><ellipse cx="214.5" cy="61.5" fill="#A9DCDF" rx="11" ry="11" style="stroke:#A80036;stroke-width:1.0;"/><path d="M216.5781,63.3125 L216.9688,64.2969 L216.5781,64.2969 C216.125,64.2969 216.0156,64.3125 215.8594,64.4219 C215.6094,64.5781 215.4531,64.8594 215.4531,65.1563 C215.4531,65.4219 215.5938,65.6719 215.8125,65.8281 C215.9531,65.9531 216.1563,66 216.5781,66 L218.9375,66 C219.2969,66 219.5156,65.9688 219.6563,65.875 C219.9063,65.7344 220.0625,65.4375 220.0625,65.1563 C220.0625,64.875 219.9219,64.625 219.7031,64.4688 C219.5313,64.3281 219.375,64.2969 218.9063,64.2969 L215.5156,56.0938 L211.8438,56.0938 C211.3906,56.0938 211.2656,56.1094 211.1094,56.2031 C210.8594,56.375 210.7031,56.6563 210.7031,56.9375 C210.7031,57.2188 210.8438,57.4688 211.0625,57.6406 C211.2344,57.75 211.4063,57.7813 211.8438,57.7813 L212.9219,57.7813 L210.2813,64.2969 C209.8594,64.2969 209.7031,64.3125 209.5469,64.4219 C209.2969,64.5781 209.1406,64.8594 209.1406,65.1563 C209.1406,65.7188 209.5156,66 210.2656,66 L212.5313,66 C212.8906,66 213.1094,65.9688 213.2344,65.875 C213.5,65.7344 213.6406,65.4375 213.6406,65.1563 C213.6406,64.875 213.5156,64.625 213.2969,64.4531 C213.125,64.3281 212.9844,64.2969 212.5313,64.2969 L212.1406,64.2969 L212.5313,63.3125 L216.5781,63.3125 Z M215.875,61.6094 L213.2031,61.6094 L214.5469,58.3438 L215.875,61.6094 Z " fill="#000000"/><text fill="#000000" font-family="sans-serif" font-size="12" font-style="italic" lengthAdjust="spacing" textLength="157" x="228.5" y="65.6543">ZCL_SPDF_ABSTRACT_PDF</text><line style="stroke:#A80036;stroke-width:1.5;" x1="200.5" x2="387.5" y1="77.5" y2="77.5"/><line style="stroke:#A80036;stroke-width:1.5;" x1="200.5" x2="387.5" y1="85.5" y2="85.5"/><!--MD5=[30c23dca8ccee72c287a6f0b58220b39]
class ZCX_SPDF_EXCEPTION--><rect codeLine="42" fill="#FEFECE" height="60.8047" id="ZCX_SPDF_EXCEPTION" style="stroke:#A80036;stroke-width:1.5;" width="163" x="419.5" y="247.5"/><ellipse cx="434.5" cy="263.5" fill="#ADD1B2" rx="11" ry="11" style="stroke:#A80036;stroke-width:1.0;"/><path d="M436.8438,259.1719 C435.9063,258.7344 435.3125,258.5938 434.4375,258.5938 C431.8125,258.5938 429.8125,260.6719 429.8125,263.3906 L429.8125,264.5156 C429.8125,267.0938 431.9219,268.9844 434.8125,268.9844 C436.0313,268.9844 437.1875,268.6875 437.9375,268.1406 C438.5156,267.7344 438.8438,267.2813 438.8438,266.8906 C438.8438,266.4375 438.4531,266.0469 437.9844,266.0469 C437.7656,266.0469 437.5625,266.125 437.375,266.3125 C436.9219,266.7969 436.9219,266.7969 436.7344,266.8906 C436.3125,267.1563 435.625,267.2813 434.8594,267.2813 C432.8125,267.2813 431.5156,266.1875 431.5156,264.4844 L431.5156,263.3906 C431.5156,261.6094 432.7656,260.2969 434.5,260.2969 C435.0781,260.2969 435.6875,260.4531 436.1563,260.7031 C436.6406,260.9844 436.8125,261.2031 436.9063,261.6094 C436.9688,262.0156 437,262.1406 437.1406,262.2656 C437.2813,262.4063 437.5156,262.5156 437.7344,262.5156 C438,262.5156 438.2656,262.375 438.4375,262.1563 C438.5469,262 438.5781,261.8125 438.5781,261.3906 L438.5781,259.9688 C438.5781,259.5313 438.5625,259.4063 438.4688,259.25 C438.3125,258.9844 438.0313,258.8438 437.7344,258.8438 C437.4375,258.8438 437.2344,258.9375 437.0156,259.25 L436.8438,259.1719 Z " fill="#000000"/><text fill="#000000" font-family="sans-serif" font-size="12" lengthAdjust="spacing" textLength="131" x="448.5" y="267.6543">ZCX_SPDF_EXCEPTION</text><line style="stroke:#A80036;stroke-width:1.5;" x1="420.5" x2="581.5" y1="279.5" y2="279.5"/><line style="stroke:#A80036;stroke-width:1.5;" x1="420.5" x2="581.5" y1="287.5" y2="287.5"/><ellipse cx="430.5" cy="298.5" fill="#84BE84" rx="3" ry="3" style="stroke:#038048;stroke-width:1.0;"/><text fill="#000000" font-family="sans-serif" font-size="11" lengthAdjust="spacing" textLength="94" x="439.5" y="301.7104">CONSTRUCTOR()</text><!--MD5=[4feab306fc70a61f6b463ffc0de15d66]
class ZCL_SPDF_MAP_VALUE--><rect codeLine="7" fill="#FEFECE" height="73.6094" id="ZCL_SPDF_MAP_VALUE" style="stroke:#A80036;stroke-width:1.5;" width="165" x="629.5" y="32.5"/><ellipse cx="644.5" cy="48.5" fill="#ADD1B2" rx="11" ry="11" style="stroke:#A80036;stroke-width:1.0;"/><path d="M646.8438,44.1719 C645.9063,43.7344 645.3125,43.5938 644.4375,43.5938 C641.8125,43.5938 639.8125,45.6719 639.8125,48.3906 L639.8125,49.5156 C639.8125,52.0938 641.9219,53.9844 644.8125,53.9844 C646.0313,53.9844 647.1875,53.6875 647.9375,53.1406 C648.5156,52.7344 648.8438,52.2813 648.8438,51.8906 C648.8438,51.4375 648.4531,51.0469 647.9844,51.0469 C647.7656,51.0469 647.5625,51.125 647.375,51.3125 C646.9219,51.7969 646.9219,51.7969 646.7344,51.8906 C646.3125,52.1563 645.625,52.2813 644.8594,52.2813 C642.8125,52.2813 641.5156,51.1875 641.5156,49.4844 L641.5156,48.3906 C641.5156,46.6094 642.7656,45.2969 644.5,45.2969 C645.0781,45.2969 645.6875,45.4531 646.1563,45.7031 C646.6406,45.9844 646.8125,46.2031 646.9063,46.6094 C646.9688,47.0156 647,47.1406 647.1406,47.2656 C647.2813,47.4063 647.5156,47.5156 647.7344,47.5156 C648,47.5156 648.2656,47.375 648.4375,47.1563 C648.5469,47 648.5781,46.8125 648.5781,46.3906 L648.5781,44.9688 C648.5781,44.5313 648.5625,44.4063 648.4688,44.25 C648.3125,43.9844 648.0313,43.8438 647.7344,43.8438 C647.4375,43.8438 647.2344,43.9375 647.0156,44.25 L646.8438,44.1719 Z " fill="#000000"/><text fill="#000000" font-family="sans-serif" font-size="12" lengthAdjust="spacing" textLength="133" x="658.5" y="52.6543">ZCL_SPDF_MAP_VALUE</text><line style="stroke:#A80036;stroke-width:1.5;" x1="630.5" x2="793.5" y1="64.5" y2="64.5"/><line style="stroke:#A80036;stroke-width:1.5;" x1="630.5" x2="793.5" y1="72.5" y2="72.5"/><ellipse cx="640.5" cy="83.5" fill="#84BE84" rx="3" ry="3" style="stroke:#038048;stroke-width:1.0;"/><text fill="#000000" font-family="sans-serif" font-size="11" lengthAdjust="spacing" textLength="94" x="649.5" y="86.7104">CONSTRUCTOR()</text><ellipse cx="640.5" cy="96.3047" fill="#84BE84" rx="3" ry="3" style="stroke:#038048;stroke-width:1.0;"/><text fill="#000000" font-family="sans-serif" font-size="11" lengthAdjust="spacing" textLength="31" x="649.5" y="99.5151">GET()</text><!--MD5=[310e0bfc763dba47dfc74644ecaa7b69]
class ZCL_SPDF_MERGED_PDF--><rect codeLine="12" fill="#FEFECE" height="137.6328" id="ZCL_SPDF_MERGED_PDF" style="stroke:#A80036;stroke-width:1.5;" width="174" x="7" y="209"/><ellipse cx="22" cy="225" fill="#ADD1B2" rx="11" ry="11" style="stroke:#A80036;stroke-width:1.0;"/><path d="M24.3438,220.6719 C23.4063,220.2344 22.8125,220.0938 21.9375,220.0938 C19.3125,220.0938 17.3125,222.1719 17.3125,224.8906 L17.3125,226.0156 C17.3125,228.5938 19.4219,230.4844 22.3125,230.4844 C23.5313,230.4844 24.6875,230.1875 25.4375,229.6406 C26.0156,229.2344 26.3438,228.7813 26.3438,228.3906 C26.3438,227.9375 25.9531,227.5469 25.4844,227.5469 C25.2656,227.5469 25.0625,227.625 24.875,227.8125 C24.4219,228.2969 24.4219,228.2969 24.2344,228.3906 C23.8125,228.6563 23.125,228.7813 22.3594,228.7813 C20.3125,228.7813 19.0156,227.6875 19.0156,225.9844 L19.0156,224.8906 C19.0156,223.1094 20.2656,221.7969 22,221.7969 C22.5781,221.7969 23.1875,221.9531 23.6563,222.2031 C24.1406,222.4844 24.3125,222.7031 24.4063,223.1094 C24.4688,223.5156 24.5,223.6406 24.6406,223.7656 C24.7813,223.9063 25.0156,224.0156 25.2344,224.0156 C25.5,224.0156 25.7656,223.875 25.9375,223.6563 C26.0469,223.5 26.0781,223.3125 26.0781,222.8906 L26.0781,221.4688 C26.0781,221.0313 26.0625,220.9063 25.9688,220.75 C25.8125,220.4844 25.5313,220.3438 25.2344,220.3438 C24.9375,220.3438 24.7344,220.4375 24.5156,220.75 L24.3438,220.6719 Z " fill="#000000"/><text fill="#000000" font-family="sans-serif" font-size="12" lengthAdjust="spacing" textLength="142" x="36" y="229.1543">ZCL_SPDF_MERGED_PDF</text><line style="stroke:#A80036;stroke-width:1.5;" x1="8" x2="180" y1="241" y2="241"/><line style="stroke:#A80036;stroke-width:1.5;" x1="8" x2="180" y1="249" y2="249"/><ellipse cx="18" cy="260" fill="#84BE84" rx="3" ry="3" style="stroke:#038048;stroke-width:1.0;"/><text fill="#000000" font-family="sans-serif" font-size="11" lengthAdjust="spacing" textLength="94" x="27" y="263.2104">CONSTRUCTOR()</text><ellipse cx="18" cy="272.8047" fill="#84BE84" rx="3" ry="3" style="stroke:#038048;stroke-width:1.0;"/><text fill="#000000" font-family="sans-serif" font-size="11" lengthAdjust="spacing" textLength="63" x="27" y="276.0151">GET_SIZE()</text><ellipse cx="18" cy="285.6094" fill="#84BE84" rx="3" ry="3" style="stroke:#038048;stroke-width:1.0;"/><text fill="#000000" font-family="sans-serif" font-size="11" lengthAdjust="spacing" textLength="138" x="27" y="288.8198">SAVE_IN_APPL_SERVER()</text><ellipse cx="18" cy="298.4141" fill="#84BE84" rx="3" ry="3" style="stroke:#038048;stroke-width:1.0;"/><text fill="#000000" font-family="sans-serif" font-size="11" lengthAdjust="spacing" textLength="82" x="27" y="301.6245">SAVE_LOCAL()</text><ellipse cx="18" cy="311.2188" fill="#84BE84" rx="3" ry="3" style="stroke:#038048;stroke-width:1.0;"/><text fill="#000000" font-family="sans-serif" font-size="11" lengthAdjust="spacing" textLength="44" x="27" y="314.4292">SHOW()</text><ellipse cx="18" cy="324.0234" fill="#84BE84" rx="3" ry="3" style="stroke:#038048;stroke-width:1.0;"/><text fill="#000000" font-family="sans-serif" font-size="11" lengthAdjust="spacing" textLength="71" x="27" y="327.2339">TO_BINARY()</text><ellipse cx="18" cy="336.8281" fill="#84BE84" rx="3" ry="3" style="stroke:#038048;stroke-width:1.0;"/><text fill="#000000" font-family="sans-serif" font-size="11" lengthAdjust="spacing" textLength="80" x="27" y="340.0386">TO_XSTRING()</text><!--MD5=[a3cfb2f084f94496dd46ab18bb903347]
class ZCL_SPDF_PARTS_PDF--><rect codeLine="23" fill="#FEFECE" height="112.0234" id="ZCL_SPDF_PARTS_PDF" style="stroke:#A80036;stroke-width:1.5;" width="164" x="216" y="222"/><ellipse cx="232.35" cy="238" fill="#ADD1B2" rx="11" ry="11" style="stroke:#A80036;stroke-width:1.0;"/><path d="M234.6938,233.6719 C233.7563,233.2344 233.1625,233.0938 232.2875,233.0938 C229.6625,233.0938 227.6625,235.1719 227.6625,237.8906 L227.6625,239.0156 C227.6625,241.5938 229.7719,243.4844 232.6625,243.4844 C233.8813,243.4844 235.0375,243.1875 235.7875,242.6406 C236.3656,242.2344 236.6938,241.7813 236.6938,241.3906 C236.6938,240.9375 236.3031,240.5469 235.8344,240.5469 C235.6156,240.5469 235.4125,240.625 235.225,240.8125 C234.7719,241.2969 234.7719,241.2969 234.5844,241.3906 C234.1625,241.6563 233.475,241.7813 232.7094,241.7813 C230.6625,241.7813 229.3656,240.6875 229.3656,238.9844 L229.3656,237.8906 C229.3656,236.1094 230.6156,234.7969 232.35,234.7969 C232.9281,234.7969 233.5375,234.9531 234.0063,235.2031 C234.4906,235.4844 234.6625,235.7031 234.7563,236.1094 C234.8188,236.5156 234.85,236.6406 234.9906,236.7656 C235.1313,236.9063 235.3656,237.0156 235.5844,237.0156 C235.85,237.0156 236.1156,236.875 236.2875,236.6563 C236.3969,236.5 236.4281,236.3125 236.4281,235.8906 L236.4281,234.4688 C236.4281,234.0313 236.4125,233.9063 236.3188,233.75 C236.1625,233.4844 235.8813,233.3438 235.5844,233.3438 C235.2875,233.3438 235.0844,233.4375 234.8656,233.75 L234.6938,233.6719 Z " fill="#000000"/><text fill="#000000" font-family="sans-serif" font-size="12" lengthAdjust="spacing" textLength="129" x="246.65" y="242.1543">ZCL_SPDF_PARTS_PDF</text><line style="stroke:#A80036;stroke-width:1.5;" x1="217" x2="379" y1="254" y2="254"/><line style="stroke:#A80036;stroke-width:1.5;" x1="217" x2="379" y1="262" y2="262"/><ellipse cx="227" cy="273" fill="#84BE84" rx="3" ry="3" style="stroke:#038048;stroke-width:1.0;"/><text fill="#000000" font-family="sans-serif" font-size="11" lengthAdjust="spacing" textLength="94" x="236" y="276.2104">CONSTRUCTOR()</text><ellipse cx="227" cy="285.8047" fill="#84BE84" rx="3" ry="3" style="stroke:#038048;stroke-width:1.0;"/><text fill="#000000" font-family="sans-serif" font-size="11" lengthAdjust="spacing" textLength="73" x="236" y="289.0151">GET_PARTS()</text><ellipse cx="227" cy="298.6094" fill="#84BE84" rx="3" ry="3" style="stroke:#038048;stroke-width:1.0;"/><text fill="#000000" font-family="sans-serif" font-size="11" lengthAdjust="spacing" textLength="138" x="236" y="301.8198">SAVE_IN_APPL_SERVER()</text><ellipse cx="227" cy="311.4141" fill="#84BE84" rx="3" ry="3" style="stroke:#038048;stroke-width:1.0;"/><text fill="#000000" font-family="sans-serif" font-size="11" lengthAdjust="spacing" textLength="82" x="236" y="314.6245">SAVE_LOCAL()</text><ellipse cx="227" cy="324.2188" fill="#84BE84" rx="3" ry="3" style="stroke:#038048;stroke-width:1.0;"/><text fill="#000000" font-family="sans-serif" font-size="11" lengthAdjust="spacing" textLength="44" x="236" y="327.4292">SHOW()</text><!--MD5=[464c40bd6f622bb69196b006d0b9ff5e]
class ZCL_SPDF_REPORT--><rect codeLine="32" fill="#FEFECE" height="124.8281" id="ZCL_SPDF_REPORT" style="stroke:#A80036;stroke-width:1.5;" width="171" x="423.5" y="7"/><ellipse cx="452" cy="23" fill="#ADD1B2" rx="11" ry="11" style="stroke:#A80036;stroke-width:1.0;"/><path d="M454.3438,18.6719 C453.4063,18.2344 452.8125,18.0938 451.9375,18.0938 C449.3125,18.0938 447.3125,20.1719 447.3125,22.8906 L447.3125,24.0156 C447.3125,26.5938 449.4219,28.4844 452.3125,28.4844 C453.5313,28.4844 454.6875,28.1875 455.4375,27.6406 C456.0156,27.2344 456.3438,26.7813 456.3438,26.3906 C456.3438,25.9375 455.9531,25.5469 455.4844,25.5469 C455.2656,25.5469 455.0625,25.625 454.875,25.8125 C454.4219,26.2969 454.4219,26.2969 454.2344,26.3906 C453.8125,26.6563 453.125,26.7813 452.3594,26.7813 C450.3125,26.7813 449.0156,25.6875 449.0156,23.9844 L449.0156,22.8906 C449.0156,21.1094 450.2656,19.7969 452,19.7969 C452.5781,19.7969 453.1875,19.9531 453.6563,20.2031 C454.1406,20.4844 454.3125,20.7031 454.4063,21.1094 C454.4688,21.5156 454.5,21.6406 454.6406,21.7656 C454.7813,21.9063 455.0156,22.0156 455.2344,22.0156 C455.5,22.0156 455.7656,21.875 455.9375,21.6563 C456.0469,21.5 456.0781,21.3125 456.0781,20.8906 L456.0781,19.4688 C456.0781,19.0313 456.0625,18.9063 455.9688,18.75 C455.8125,18.4844 455.5313,18.3438 455.2344,18.3438 C454.9375,18.3438 454.7344,18.4375 454.5156,18.75 L454.3438,18.6719 Z " fill="#000000"/><text fill="#000000" font-family="sans-serif" font-size="12" lengthAdjust="spacing" textLength="109" x="469" y="27.1543">ZCL_SPDF_REPORT</text><line style="stroke:#A80036;stroke-width:1.5;" x1="424.5" x2="593.5" y1="39" y2="39"/><line style="stroke:#A80036;stroke-width:1.5;" x1="424.5" x2="593.5" y1="47" y2="47"/><ellipse cx="434.5" cy="58" fill="#84BE84" rx="3" ry="3" style="stroke:#038048;stroke-width:1.0;"/><text fill="#000000" font-family="sans-serif" font-size="11" lengthAdjust="spacing" textLength="78" x="443.5" y="61.2104">ADD_PARAM()</text><ellipse cx="434.5" cy="70.8047" fill="#84BE84" rx="3" ry="3" style="stroke:#038048;stroke-width:1.0;"/><text fill="#000000" font-family="sans-serif" font-size="11" lengthAdjust="spacing" textLength="97" x="443.5" y="74.0151">BP_JOB_DELETE()</text><ellipse cx="434.5" cy="83.6094" fill="#84BE84" rx="3" ry="3" style="stroke:#038048;stroke-width:1.0;"/><text fill="#000000" font-family="sans-serif" font-size="11" lengthAdjust="spacing" textLength="94" x="443.5" y="86.8198">CONSTRUCTOR()</text><ellipse cx="434.5" cy="96.4141" fill="#84BE84" rx="3" ry="3" style="stroke:#038048;stroke-width:1.0;"/><text fill="#000000" font-family="sans-serif" font-size="11" lengthAdjust="spacing" textLength="112" x="443.5" y="99.6245">GET_MERGED_PDF()</text><ellipse cx="434.5" cy="109.2188" fill="#84BE84" rx="3" ry="3" style="stroke:#038048;stroke-width:1.0;"/><text fill="#000000" font-family="sans-serif" font-size="11" lengthAdjust="spacing" textLength="100" x="443.5" y="112.4292">GET_PARTS_PDF()</text><ellipse cx="434.5" cy="122.0234" fill="#84BE84" rx="3" ry="3" style="stroke:#038048;stroke-width:1.0;"/><text fill="#000000" font-family="sans-serif" font-size="11" lengthAdjust="spacing" textLength="145" x="443.5" y="125.2339">SUBMIT_TO_SAP_SPOOL()</text><!--MD5=[6653cd2606580c5450413a7ae6d307d9]
link ZCL_SPDF_ABSTRACT_PDF to ZCX_SPDF_EXCEPTION--><path codeLine="5" d="M317.343,93.787 C354.087,130.442 425.559,201.741 467.69,243.77 " fill="none" id="ZCL_SPDF_ABSTRACT_PDF-to-ZCX_SPDF_EXCEPTION" style="stroke:#A80036;stroke-width:1.0;stroke-dasharray:7.0,7.0;"/><polygon fill="#A80036" points="471.423,247.4942,467.8763,238.3061,467.8832,243.963,462.2263,243.9698,471.423,247.4942" style="stroke:#A80036;stroke-width:1.0;"/><text fill="#000000" font-family="sans-serif" font-size="13" lengthAdjust="spacing" textLength="63" x="399" y="175.0669">exception</text><!--MD5=[d9c00fff29d89db241a3afbefc5ff14e]
reverse link ZCL_SPDF_ABSTRACT_PDF to ZCL_SPDF_MERGED_PDF--><path codeLine="21" d="M257.169,108.528 C230.012,136.568 192.331,175.473 160.021,208.833 " fill="none" id="ZCL_SPDF_ABSTRACT_PDF-backto-ZCL_SPDF_MERGED_PDF" style="stroke:#A80036;stroke-width:1.0;"/><polygon fill="none" points="252.504,103.283,271.446,93.787,262.56,113.023,252.504,103.283" style="stroke:#A80036;stroke-width:1.0;"/><!--MD5=[b7b5e5b9ed01bf10b89b43ea1206b823]
reverse link ZCL_SPDF_ABSTRACT_PDF to ZCL_SPDF_PARTS_PDF--><path codeLine="30" d="M294.841,113.895 C295.448,145.248 296.273,187.848 296.928,221.649 " fill="none" id="ZCL_SPDF_ABSTRACT_PDF-backto-ZCL_SPDF_PARTS_PDF" style="stroke:#A80036;stroke-width:1.0;"/><polygon fill="none" points="287.84,113.919,294.451,93.787,301.837,113.647,287.84,113.919" style="stroke:#A80036;stroke-width:1.0;"/><!--MD5=[2543a41f128d45dce30f55ba8a1dcf36]
link ZCL_SPDF_REPORT to ZCX_SPDF_EXCEPTION--><path codeLine="40" d="M506.611,132.177 C505.218,168.128 503.512,212.151 502.35,242.158 " fill="none" id="ZCL_SPDF_REPORT-to-ZCX_SPDF_EXCEPTION" style="stroke:#A80036;stroke-width:1.0;stroke-dasharray:7.0,7.0;"/><polygon fill="#A80036" points="502.154,247.2212,506.5007,238.3834,502.3483,242.225,498.5068,238.0726,502.154,247.2212" style="stroke:#A80036;stroke-width:1.0;"/><text fill="#000000" font-family="sans-serif" font-size="13" lengthAdjust="spacing" textLength="63" x="506" y="175.0669">exception</text><!--MD5=[beb41ac9624af7ce9c028239b2b8c846]
@startuml
skinparam shadowing false
set namespaceSeparator ::
abstract class ZCL_SPDF_ABSTRACT_PDF {
}
ZCL_SPDF_ABSTRACT_PDF ..> ZCX_SPDF_EXCEPTION  : exception 

class ZCL_SPDF_MAP_VALUE {
+ CONSTRUCTOR() 
+ GET() 
}

class ZCL_SPDF_MERGED_PDF {
+ CONSTRUCTOR() 
+ GET_SIZE() 
+ SAVE_IN_APPL_SERVER() 
+ SAVE_LOCAL() 
+ SHOW() 
+ TO_BINARY() 
+ TO_XSTRING() 
}
ZCL_SPDF_ABSTRACT_PDF <|- - ZCL_SPDF_MERGED_PDF

class ZCL_SPDF_PARTS_PDF {
+ CONSTRUCTOR() 
+ GET_PARTS() 
+ SAVE_IN_APPL_SERVER() 
+ SAVE_LOCAL() 
+ SHOW() 
}
ZCL_SPDF_ABSTRACT_PDF <|- - ZCL_SPDF_PARTS_PDF

class ZCL_SPDF_REPORT {
+ ADD_PARAM() 
+ BP_JOB_DELETE() 
+ CONSTRUCTOR() 
+ GET_MERGED_PDF() 
+ GET_PARTS_PDF() 
+ SUBMIT_TO_SAP_SPOOL() 
}
ZCL_SPDF_REPORT ..> ZCX_SPDF_EXCEPTION  : exception 

class ZCX_SPDF_EXCEPTION {
+ CONSTRUCTOR() 
}
@enduml

PlantUML version 1.2021.6beta6(Unknown compile time)
(GPL source distribution)
Java Runtime: Java(TM) SE Runtime Environment
JVM: Java HotSpot(TM) 64-Bit Server VM
Default Encoding: UTF-8
Language: en
Country: US
--></g></svg>