<?xml version="1.0" encoding="UTF-8" standalone="no"?><svg xmlns="http://www.w3.org/2000/svg" xmlns:xlink="http://www.w3.org/1999/xlink" contentScriptType="application/ecmascript" contentStyleType="text/css" height="474px" preserveAspectRatio="none" style="width:401px;height:474px;background:#FFFFFF;" version="1.1" viewBox="0 0 401 474" width="401px" zoomAndPan="magnify"><defs/><g><!--MD5=[4feab306fc70a61f6b463ffc0de15d66]
class ZCL_SPDF_MAP_VALUE--><rect codeLine="3" fill="#FEFECE" height="73.6094" id="ZCL_SPDF_MAP_VALUE" style="stroke:#A80036;stroke-width:1.5;" width="165" x="7" y="45"/><ellipse cx="22" cy="61" fill="#ADD1B2" rx="11" ry="11" style="stroke:#A80036;stroke-width:1.0;"/><path d="M24.3438,56.6719 C23.4063,56.2344 22.8125,56.0938 21.9375,56.0938 C19.3125,56.0938 17.3125,58.1719 17.3125,60.8906 L17.3125,62.0156 C17.3125,64.5938 19.4219,66.4844 22.3125,66.4844 C23.5313,66.4844 24.6875,66.1875 25.4375,65.6406 C26.0156,65.2344 26.3438,64.7813 26.3438,64.3906 C26.3438,63.9375 25.9531,63.5469 25.4844,63.5469 C25.2656,63.5469 25.0625,63.625 24.875,63.8125 C24.4219,64.2969 24.4219,64.2969 24.2344,64.3906 C23.8125,64.6563 23.125,64.7813 22.3594,64.7813 C20.3125,64.7813 19.0156,63.6875 19.0156,61.9844 L19.0156,60.8906 C19.0156,59.1094 20.2656,57.7969 22,57.7969 C22.5781,57.7969 23.1875,57.9531 23.6563,58.2031 C24.1406,58.4844 24.3125,58.7031 24.4063,59.1094 C24.4688,59.5156 24.5,59.6406 24.6406,59.7656 C24.7813,59.9063 25.0156,60.0156 25.2344,60.0156 C25.5,60.0156 25.7656,59.875 25.9375,59.6563 C26.0469,59.5 26.0781,59.3125 26.0781,58.8906 L26.0781,57.4688 C26.0781,57.0313 26.0625,56.9063 25.9688,56.75 C25.8125,56.4844 25.5313,56.3438 25.2344,56.3438 C24.9375,56.3438 24.7344,56.4375 24.5156,56.75 L24.3438,56.6719 Z " fill="#000000"/><text fill="#000000" font-family="sans-serif" font-size="12" lengthAdjust="spacing" textLength="133" x="36" y="65.1543">ZCL_SPDF_MAP_VALUE</text><line style="stroke:#A80036;stroke-width:1.5;" x1="8" x2="171" y1="77" y2="77"/><line style="stroke:#A80036;stroke-width:1.5;" x1="8" x2="171" y1="85" y2="85"/><ellipse cx="18" cy="96" fill="#84BE84" rx="3" ry="3" style="stroke:#038048;stroke-width:1.0;"/><text fill="#000000" font-family="sans-serif" font-size="11" lengthAdjust="spacing" textLength="94" x="27" y="99.2104">CONSTRUCTOR()</text><ellipse cx="18" cy="108.8047" fill="#84BE84" rx="3" ry="3" style="stroke:#038048;stroke-width:1.0;"/><text fill="#000000" font-family="sans-serif" font-size="11" lengthAdjust="spacing" textLength="31" x="27" y="112.0151">GET()</text><!--MD5=[310e0bfc763dba47dfc74644ecaa7b69]
class ZCL_SPDF_MERGED_PDF--><rect codeLine="8" fill="#FEFECE" height="150.4375" id="ZCL_SPDF_MERGED_PDF" style="stroke:#A80036;stroke-width:1.5;" width="174" x="207.5" y="7"/><ellipse cx="222.5" cy="23" fill="#ADD1B2" rx="11" ry="11" style="stroke:#A80036;stroke-width:1.0;"/><path d="M224.8438,18.6719 C223.9063,18.2344 223.3125,18.0938 222.4375,18.0938 C219.8125,18.0938 217.8125,20.1719 217.8125,22.8906 L217.8125,24.0156 C217.8125,26.5938 219.9219,28.4844 222.8125,28.4844 C224.0313,28.4844 225.1875,28.1875 225.9375,27.6406 C226.5156,27.2344 226.8438,26.7813 226.8438,26.3906 C226.8438,25.9375 226.4531,25.5469 225.9844,25.5469 C225.7656,25.5469 225.5625,25.625 225.375,25.8125 C224.9219,26.2969 224.9219,26.2969 224.7344,26.3906 C224.3125,26.6563 223.625,26.7813 222.8594,26.7813 C220.8125,26.7813 219.5156,25.6875 219.5156,23.9844 L219.5156,22.8906 C219.5156,21.1094 220.7656,19.7969 222.5,19.7969 C223.0781,19.7969 223.6875,19.9531 224.1563,20.2031 C224.6406,20.4844 224.8125,20.7031 224.9063,21.1094 C224.9688,21.5156 225,21.6406 225.1406,21.7656 C225.2813,21.9063 225.5156,22.0156 225.7344,22.0156 C226,22.0156 226.2656,21.875 226.4375,21.6563 C226.5469,21.5 226.5781,21.3125 226.5781,20.8906 L226.5781,19.4688 C226.5781,19.0313 226.5625,18.9063 226.4688,18.75 C226.3125,18.4844 226.0313,18.3438 225.7344,18.3438 C225.4375,18.3438 225.2344,18.4375 225.0156,18.75 L224.8438,18.6719 Z " fill="#000000"/><text fill="#000000" font-family="sans-serif" font-size="12" lengthAdjust="spacing" textLength="142" x="236.5" y="27.1543">ZCL_SPDF_MERGED_PDF</text><line style="stroke:#A80036;stroke-width:1.5;" x1="208.5" x2="380.5" y1="39" y2="39"/><line style="stroke:#A80036;stroke-width:1.5;" x1="208.5" x2="380.5" y1="47" y2="47"/><ellipse cx="218.5" cy="58" fill="#84BE84" rx="3" ry="3" style="stroke:#038048;stroke-width:1.0;"/><text fill="#000000" font-family="sans-serif" font-size="11" lengthAdjust="spacing" textLength="94" x="227.5" y="61.2104">CONSTRUCTOR()</text><ellipse cx="218.5" cy="70.8047" fill="#84BE84" rx="3" ry="3" style="stroke:#038048;stroke-width:1.0;"/><text fill="#000000" font-family="sans-serif" font-size="11" lengthAdjust="spacing" textLength="63" x="227.5" y="74.0151">GET_SIZE()</text><ellipse cx="218.5" cy="83.6094" fill="#84BE84" rx="3" ry="3" style="stroke:#038048;stroke-width:1.0;"/><text fill="#000000" font-family="sans-serif" font-size="11" lengthAdjust="spacing" textLength="138" x="227.5" y="86.8198">SAVE_IN_APPL_SERVER()</text><ellipse cx="218.5" cy="96.4141" fill="#84BE84" rx="3" ry="3" style="stroke:#038048;stroke-width:1.0;"/><text fill="#000000" font-family="sans-serif" font-size="11" lengthAdjust="spacing" textLength="82" x="227.5" y="99.6245">SAVE_LOCAL()</text><ellipse cx="218.5" cy="109.2188" fill="#84BE84" rx="3" ry="3" style="stroke:#038048;stroke-width:1.0;"/><text fill="#000000" font-family="sans-serif" font-size="11" lengthAdjust="spacing" textLength="40" x="227.5" y="112.4292">SEND()</text><ellipse cx="218.5" cy="122.0234" fill="#84BE84" rx="3" ry="3" style="stroke:#038048;stroke-width:1.0;"/><text fill="#000000" font-family="sans-serif" font-size="11" lengthAdjust="spacing" textLength="44" x="227.5" y="125.2339">SHOW()</text><ellipse cx="218.5" cy="134.8281" fill="#84BE84" rx="3" ry="3" style="stroke:#038048;stroke-width:1.0;"/><text fill="#000000" font-family="sans-serif" font-size="11" lengthAdjust="spacing" textLength="71" x="227.5" y="138.0386">TO_BINARY()</text><ellipse cx="218.5" cy="147.6328" fill="#84BE84" rx="3" ry="3" style="stroke:#038048;stroke-width:1.0;"/><text fill="#000000" font-family="sans-serif" font-size="11" lengthAdjust="spacing" textLength="80" x="227.5" y="150.8433">TO_XSTRING()</text><!--MD5=[464c40bd6f622bb69196b006d0b9ff5e]
class ZCL_SPDF_REPORT--><rect codeLine="21" fill="#FEFECE" height="112.0234" id="ZCL_SPDF_REPORT" style="stroke:#A80036;stroke-width:1.5;" width="171" x="102" y="218"/><ellipse cx="130.5" cy="234" fill="#ADD1B2" rx="11" ry="11" style="stroke:#A80036;stroke-width:1.0;"/><path d="M132.8438,229.6719 C131.9063,229.2344 131.3125,229.0938 130.4375,229.0938 C127.8125,229.0938 125.8125,231.1719 125.8125,233.8906 L125.8125,235.0156 C125.8125,237.5938 127.9219,239.4844 130.8125,239.4844 C132.0313,239.4844 133.1875,239.1875 133.9375,238.6406 C134.5156,238.2344 134.8438,237.7813 134.8438,237.3906 C134.8438,236.9375 134.4531,236.5469 133.9844,236.5469 C133.7656,236.5469 133.5625,236.625 133.375,236.8125 C132.9219,237.2969 132.9219,237.2969 132.7344,237.3906 C132.3125,237.6563 131.625,237.7813 130.8594,237.7813 C128.8125,237.7813 127.5156,236.6875 127.5156,234.9844 L127.5156,233.8906 C127.5156,232.1094 128.7656,230.7969 130.5,230.7969 C131.0781,230.7969 131.6875,230.9531 132.1563,231.2031 C132.6406,231.4844 132.8125,231.7031 132.9063,232.1094 C132.9688,232.5156 133,232.6406 133.1406,232.7656 C133.2813,232.9063 133.5156,233.0156 133.7344,233.0156 C134,233.0156 134.2656,232.875 134.4375,232.6563 C134.5469,232.5 134.5781,232.3125 134.5781,231.8906 L134.5781,230.4688 C134.5781,230.0313 134.5625,229.9063 134.4688,229.75 C134.3125,229.4844 134.0313,229.3438 133.7344,229.3438 C133.4375,229.3438 133.2344,229.4375 133.0156,229.75 L132.8438,229.6719 Z " fill="#000000"/><text fill="#000000" font-family="sans-serif" font-size="12" lengthAdjust="spacing" textLength="109" x="147.5" y="238.1543">ZCL_SPDF_REPORT</text><line style="stroke:#A80036;stroke-width:1.5;" x1="103" x2="272" y1="250" y2="250"/><line style="stroke:#A80036;stroke-width:1.5;" x1="103" x2="272" y1="258" y2="258"/><ellipse cx="113" cy="269" fill="#84BE84" rx="3" ry="3" style="stroke:#038048;stroke-width:1.0;"/><text fill="#000000" font-family="sans-serif" font-size="11" lengthAdjust="spacing" textLength="78" x="122" y="272.2104">ADD_PARAM()</text><ellipse cx="113" cy="281.8047" fill="#84BE84" rx="3" ry="3" style="stroke:#038048;stroke-width:1.0;"/><text fill="#000000" font-family="sans-serif" font-size="11" lengthAdjust="spacing" textLength="97" x="122" y="285.0151">BP_JOB_DELETE()</text><ellipse cx="113" cy="294.6094" fill="#84BE84" rx="3" ry="3" style="stroke:#038048;stroke-width:1.0;"/><text fill="#000000" font-family="sans-serif" font-size="11" lengthAdjust="spacing" textLength="94" x="122" y="297.8198">CONSTRUCTOR()</text><ellipse cx="113" cy="307.4141" fill="#84BE84" rx="3" ry="3" style="stroke:#038048;stroke-width:1.0;"/><text fill="#000000" font-family="sans-serif" font-size="11" lengthAdjust="spacing" textLength="112" x="122" y="310.6245">GET_MERGED_PDF()</text><ellipse cx="113" cy="320.2188" fill="#84BE84" rx="3" ry="3" style="stroke:#038048;stroke-width:1.0;"/><text fill="#000000" font-family="sans-serif" font-size="11" lengthAdjust="spacing" textLength="145" x="122" y="323.4292">SUBMIT_TO_SAP_SPOOL()</text><!--MD5=[30c23dca8ccee72c287a6f0b58220b39]
class ZCX_SPDF_EXCEPTION--><rect codeLine="30" fill="#FEFECE" height="60.8047" id="ZCX_SPDF_EXCEPTION" style="stroke:#A80036;stroke-width:1.5;" width="163" x="201" y="407"/><ellipse cx="216" cy="423" fill="#ADD1B2" rx="11" ry="11" style="stroke:#A80036;stroke-width:1.0;"/><path d="M218.3438,418.6719 C217.4063,418.2344 216.8125,418.0938 215.9375,418.0938 C213.3125,418.0938 211.3125,420.1719 211.3125,422.8906 L211.3125,424.0156 C211.3125,426.5938 213.4219,428.4844 216.3125,428.4844 C217.5313,428.4844 218.6875,428.1875 219.4375,427.6406 C220.0156,427.2344 220.3438,426.7813 220.3438,426.3906 C220.3438,425.9375 219.9531,425.5469 219.4844,425.5469 C219.2656,425.5469 219.0625,425.625 218.875,425.8125 C218.4219,426.2969 218.4219,426.2969 218.2344,426.3906 C217.8125,426.6563 217.125,426.7813 216.3594,426.7813 C214.3125,426.7813 213.0156,425.6875 213.0156,423.9844 L213.0156,422.8906 C213.0156,421.1094 214.2656,419.7969 216,419.7969 C216.5781,419.7969 217.1875,419.9531 217.6563,420.2031 C218.1406,420.4844 218.3125,420.7031 218.4063,421.1094 C218.4688,421.5156 218.5,421.6406 218.6406,421.7656 C218.7813,421.9063 219.0156,422.0156 219.2344,422.0156 C219.5,422.0156 219.7656,421.875 219.9375,421.6563 C220.0469,421.5 220.0781,421.3125 220.0781,420.8906 L220.0781,419.4688 C220.0781,419.0313 220.0625,418.9063 219.9688,418.75 C219.8125,418.4844 219.5313,418.3438 219.2344,418.3438 C218.9375,418.3438 218.7344,418.4375 218.5156,418.75 L218.3438,418.6719 Z " fill="#000000"/><text fill="#000000" font-family="sans-serif" font-size="12" lengthAdjust="spacing" textLength="131" x="230" y="427.1543">ZCX_SPDF_EXCEPTION</text><line style="stroke:#A80036;stroke-width:1.5;" x1="202" x2="363" y1="439" y2="439"/><line style="stroke:#A80036;stroke-width:1.5;" x1="202" x2="363" y1="447" y2="447"/><ellipse cx="212" cy="458" fill="#84BE84" rx="3" ry="3" style="stroke:#038048;stroke-width:1.0;"/><text fill="#000000" font-family="sans-serif" font-size="11" lengthAdjust="spacing" textLength="94" x="221" y="461.2104">CONSTRUCTOR()</text><!--MD5=[3215e5d171f5530a185f84f2b1f50184]
reverse link ZCL_SPDF_MERGED_PDF to ZCL_SPDF_REPORT--><path codeLine="18" d="M250.144,161.763 C239.553,180.569 228.471,200.249 218.622,217.737 " fill="none" id="ZCL_SPDF_MERGED_PDF-backto-ZCL_SPDF_REPORT" style="stroke:#A80036;stroke-width:1.0;"/><polygon fill="#A80036" points="252.825,157.003,244.9243,162.8834,250.3722,161.36,251.8956,166.8079,252.825,157.003" style="stroke:#A80036;stroke-width:1.0;"/><!--MD5=[9fc262f07d9a4001f104640aac4f67e7]
link ZCL_SPDF_MERGED_PDF to ZCX_SPDF_EXCEPTION--><path codeLine="19" d="M314.651,157.153 C327.701,217.432 338.832,304.118 318.5,377 C316.064,385.733 311.959,394.4622 307.375,402.4386 " fill="none" id="ZCL_SPDF_MERGED_PDF-to-ZCX_SPDF_EXCEPTION" style="stroke:#A80036;stroke-width:1.0;stroke-dasharray:7.0,7.0;"/><polygon fill="#A80036" points="304.786,406.7877,312.8263,401.0997,307.3432,402.4911,305.9518,397.0081,304.786,406.7877" style="stroke:#A80036;stroke-width:1.0;"/><text fill="#000000" font-family="sans-serif" font-size="13" lengthAdjust="spacing" textLength="63" x="330.5" y="278.5669">exception</text><!--MD5=[2543a41f128d45dce30f55ba8a1dcf36]
link ZCL_SPDF_REPORT to ZCX_SPDF_EXCEPTION--><path codeLine="28" d="M219.928,330.127 C234.079,354.185 250.222,381.6269 262.566,402.612 " fill="none" id="ZCL_SPDF_REPORT-to-ZCX_SPDF_EXCEPTION" style="stroke:#A80036;stroke-width:1.0;stroke-dasharray:7.0,7.0;"/><polygon fill="#A80036" points="265.14,406.9885,264.0248,397.203,262.605,402.6788,257.1292,401.259,265.14,406.9885" style="stroke:#A80036;stroke-width:1.0;"/><text fill="#000000" font-family="sans-serif" font-size="13" lengthAdjust="spacing" textLength="63" x="246.5" y="373.0669">exception</text><!--MD5=[7f8fb292f8e9ab25e00dc9a6b238ad7a]
@startuml
skinparam shadowing false
set namespaceSeparator ::
class ZCL_SPDF_MAP_VALUE {
+ CONSTRUCTOR() 
+ GET() 
}

class ZCL_SPDF_MERGED_PDF {
+ CONSTRUCTOR() 
+ GET_SIZE() 
+ SAVE_IN_APPL_SERVER() 
+ SAVE_LOCAL() 
+ SEND() 
+ SHOW() 
+ TO_BINARY() 
+ TO_XSTRING() 
}
ZCL_SPDF_MERGED_PDF <- - ZCL_SPDF_REPORT
ZCL_SPDF_MERGED_PDF ..> ZCX_SPDF_EXCEPTION  : exception 

class ZCL_SPDF_REPORT {
+ ADD_PARAM() 
+ BP_JOB_DELETE() 
+ CONSTRUCTOR() 
+ GET_MERGED_PDF() 
+ SUBMIT_TO_SAP_SPOOL() 
}
ZCL_SPDF_REPORT ..> ZCX_SPDF_EXCEPTION  : exception 

class ZCX_SPDF_EXCEPTION {
+ CONSTRUCTOR() 
}
@enduml

PlantUML version 1.2021.7beta2(Unknown compile time)
(GPL source distribution)
Java Runtime: Java(TM) SE Runtime Environment
JVM: Java HotSpot(TM) 64-Bit Server VM
Default Encoding: UTF-8
Language: en
Country: US
--></g></svg>